<mxfile host="app.diagrams.net" modified="2022-05-21T23:50:08.345Z" agent="5.0 (Windows NT 10.0; Win64; x64) AppleWebKit/537.36 (KHTML, like Gecko) Chrome/101.0.4951.67 Safari/537.36" etag="hbyOsOhObyPA1y4j14oC" version="18.1.1" type="github">
  <diagram id="aWON5lPTbqI8abu_u99D" name="Page-1">
    <mxGraphModel dx="1422" dy="762" grid="1" gridSize="10" guides="1" tooltips="1" connect="1" arrows="1" fold="1" page="1" pageScale="1" pageWidth="827" pageHeight="1169" math="0" shadow="0">
      <root>
        <mxCell id="0" />
        <mxCell id="1" parent="0" />
        <mxCell id="C4ocbQQ2MePA_ajjcNaI-1" value="PROFESORES" style="rounded=1;whiteSpace=wrap;html=1;" vertex="1" parent="1">
          <mxGeometry x="140" y="170" width="120" height="60" as="geometry" />
        </mxCell>
        <mxCell id="C4ocbQQ2MePA_ajjcNaI-2" value="MATERIAS" style="rounded=1;whiteSpace=wrap;html=1;" vertex="1" parent="1">
          <mxGeometry x="560" y="170" width="120" height="60" as="geometry" />
        </mxCell>
        <mxCell id="C4ocbQQ2MePA_ajjcNaI-3" value="ALUMNOS" style="rounded=1;whiteSpace=wrap;html=1;" vertex="1" parent="1">
          <mxGeometry x="560" y="360" width="120" height="60" as="geometry" />
        </mxCell>
        <mxCell id="C4ocbQQ2MePA_ajjcNaI-4" value="CURSO" style="rounded=1;whiteSpace=wrap;html=1;" vertex="1" parent="1">
          <mxGeometry x="140" y="360" width="120" height="60" as="geometry" />
        </mxCell>
        <mxCell id="C4ocbQQ2MePA_ajjcNaI-6" value="NOM_PROF" style="ellipse;whiteSpace=wrap;html=1;" vertex="1" parent="1">
          <mxGeometry x="90" y="67.5" width="80" height="35" as="geometry" />
        </mxCell>
        <mxCell id="C4ocbQQ2MePA_ajjcNaI-7" value="DIR_PROF" style="ellipse;whiteSpace=wrap;html=1;" vertex="1" parent="1">
          <mxGeometry x="180" y="70" width="80" height="30" as="geometry" />
        </mxCell>
        <mxCell id="C4ocbQQ2MePA_ajjcNaI-8" value="TEL_PROF" style="ellipse;whiteSpace=wrap;html=1;" vertex="1" parent="1">
          <mxGeometry x="270" y="67.5" width="80" height="32" as="geometry" />
        </mxCell>
        <mxCell id="C4ocbQQ2MePA_ajjcNaI-9" value="" style="endArrow=none;html=1;rounded=0;exitX=0.933;exitY=0.033;exitDx=0;exitDy=0;entryX=0.5;entryY=1;entryDx=0;entryDy=0;exitPerimeter=0;" edge="1" parent="1" source="C4ocbQQ2MePA_ajjcNaI-1" target="C4ocbQQ2MePA_ajjcNaI-8">
          <mxGeometry width="50" height="50" relative="1" as="geometry">
            <mxPoint x="270" y="149.5" as="sourcePoint" />
            <mxPoint x="320" y="99.5" as="targetPoint" />
          </mxGeometry>
        </mxCell>
        <mxCell id="C4ocbQQ2MePA_ajjcNaI-10" value="" style="endArrow=none;html=1;rounded=0;exitX=0.7;exitY=0.017;exitDx=0;exitDy=0;exitPerimeter=0;entryX=0.5;entryY=1;entryDx=0;entryDy=0;" edge="1" parent="1" source="C4ocbQQ2MePA_ajjcNaI-1" target="C4ocbQQ2MePA_ajjcNaI-7">
          <mxGeometry width="50" height="50" relative="1" as="geometry">
            <mxPoint x="170" y="149.5" as="sourcePoint" />
            <mxPoint x="220" y="110" as="targetPoint" />
          </mxGeometry>
        </mxCell>
        <mxCell id="C4ocbQQ2MePA_ajjcNaI-11" value="" style="endArrow=none;html=1;rounded=0;exitX=0.5;exitY=0;exitDx=0;exitDy=0;entryX=0.5;entryY=1;entryDx=0;entryDy=0;" edge="1" parent="1" source="C4ocbQQ2MePA_ajjcNaI-1" target="C4ocbQQ2MePA_ajjcNaI-6">
          <mxGeometry width="50" height="50" relative="1" as="geometry">
            <mxPoint x="90" y="149.5" as="sourcePoint" />
            <mxPoint x="140" y="110" as="targetPoint" />
          </mxGeometry>
        </mxCell>
        <mxCell id="C4ocbQQ2MePA_ajjcNaI-12" value="" style="endArrow=none;html=1;rounded=0;exitX=0.25;exitY=0;exitDx=0;exitDy=0;entryX=0.657;entryY=1;entryDx=0;entryDy=0;entryPerimeter=0;" edge="1" parent="1" source="C4ocbQQ2MePA_ajjcNaI-1" target="C4ocbQQ2MePA_ajjcNaI-38">
          <mxGeometry width="50" height="50" relative="1" as="geometry">
            <mxPoint x="40" y="180" as="sourcePoint" />
            <mxPoint x="118.28427124746213" y="168.28427124746213" as="targetPoint" />
          </mxGeometry>
        </mxCell>
        <mxCell id="C4ocbQQ2MePA_ajjcNaI-13" value="NOM_MAT" style="ellipse;whiteSpace=wrap;html=1;" vertex="1" parent="1">
          <mxGeometry x="660" y="40" width="70" height="40" as="geometry" />
        </mxCell>
        <mxCell id="C4ocbQQ2MePA_ajjcNaI-14" value="&lt;font color=&quot;#ffffff&quot;&gt;COD_MAT&lt;/font&gt;" style="ellipse;whiteSpace=wrap;html=1;fillColor=#000000;" vertex="1" parent="1">
          <mxGeometry x="480" y="50" width="70" height="40" as="geometry" />
        </mxCell>
        <mxCell id="C4ocbQQ2MePA_ajjcNaI-15" value="" style="endArrow=none;html=1;rounded=0;exitX=0.25;exitY=0;exitDx=0;exitDy=0;entryX=0.5;entryY=1;entryDx=0;entryDy=0;" edge="1" parent="1" source="C4ocbQQ2MePA_ajjcNaI-2" target="C4ocbQQ2MePA_ajjcNaI-14">
          <mxGeometry width="50" height="50" relative="1" as="geometry">
            <mxPoint x="480" y="130" as="sourcePoint" />
            <mxPoint x="530" y="80" as="targetPoint" />
          </mxGeometry>
        </mxCell>
        <mxCell id="C4ocbQQ2MePA_ajjcNaI-16" value="" style="endArrow=none;html=1;rounded=0;exitX=0.75;exitY=0;exitDx=0;exitDy=0;entryX=0.5;entryY=1;entryDx=0;entryDy=0;" edge="1" parent="1" source="C4ocbQQ2MePA_ajjcNaI-2" target="C4ocbQQ2MePA_ajjcNaI-13">
          <mxGeometry width="50" height="50" relative="1" as="geometry">
            <mxPoint x="650" y="130" as="sourcePoint" />
            <mxPoint x="700" y="80" as="targetPoint" />
          </mxGeometry>
        </mxCell>
        <mxCell id="C4ocbQQ2MePA_ajjcNaI-17" value="&lt;font color=&quot;#ffffff&quot;&gt;EXP_ALU&lt;br&gt;&lt;/font&gt;" style="ellipse;whiteSpace=wrap;html=1;fillColor=#000000;" vertex="1" parent="1">
          <mxGeometry x="490" y="470" width="65" height="40" as="geometry" />
        </mxCell>
        <mxCell id="C4ocbQQ2MePA_ajjcNaI-18" value="NOMBRE" style="ellipse;whiteSpace=wrap;html=1;" vertex="1" parent="1">
          <mxGeometry x="570" y="500" width="60" height="30" as="geometry" />
        </mxCell>
        <mxCell id="C4ocbQQ2MePA_ajjcNaI-19" value="APELLIDO" style="ellipse;whiteSpace=wrap;html=1;" vertex="1" parent="1">
          <mxGeometry x="650" y="500" width="70" height="30" as="geometry" />
        </mxCell>
        <mxCell id="C4ocbQQ2MePA_ajjcNaI-20" value="&lt;font style=&quot;font-size: 8px;&quot;&gt;FECHA DE NACIMIENTO&lt;/font&gt;" style="ellipse;whiteSpace=wrap;html=1;" vertex="1" parent="1">
          <mxGeometry x="730" y="450" width="60" height="50" as="geometry" />
        </mxCell>
        <mxCell id="C4ocbQQ2MePA_ajjcNaI-22" value="" style="endArrow=none;html=1;rounded=0;fontSize=8;exitX=0.545;exitY=0;exitDx=0;exitDy=0;exitPerimeter=0;entryX=0.25;entryY=1;entryDx=0;entryDy=0;" edge="1" parent="1" source="C4ocbQQ2MePA_ajjcNaI-17" target="C4ocbQQ2MePA_ajjcNaI-3">
          <mxGeometry width="50" height="50" relative="1" as="geometry">
            <mxPoint x="540" y="470" as="sourcePoint" />
            <mxPoint x="590" y="420" as="targetPoint" />
          </mxGeometry>
        </mxCell>
        <mxCell id="C4ocbQQ2MePA_ajjcNaI-23" value="" style="endArrow=none;html=1;rounded=0;fontSize=8;exitX=0.5;exitY=0;exitDx=0;exitDy=0;entryX=0.425;entryY=1;entryDx=0;entryDy=0;entryPerimeter=0;" edge="1" parent="1" source="C4ocbQQ2MePA_ajjcNaI-18" target="C4ocbQQ2MePA_ajjcNaI-3">
          <mxGeometry width="50" height="50" relative="1" as="geometry">
            <mxPoint x="595" y="500" as="sourcePoint" />
            <mxPoint x="645" y="450" as="targetPoint" />
          </mxGeometry>
        </mxCell>
        <mxCell id="C4ocbQQ2MePA_ajjcNaI-24" value="" style="endArrow=none;html=1;rounded=0;fontSize=8;entryX=0.642;entryY=1.017;entryDx=0;entryDy=0;entryPerimeter=0;exitX=0.5;exitY=0;exitDx=0;exitDy=0;" edge="1" parent="1" source="C4ocbQQ2MePA_ajjcNaI-19" target="C4ocbQQ2MePA_ajjcNaI-3">
          <mxGeometry width="50" height="50" relative="1" as="geometry">
            <mxPoint x="670" y="500" as="sourcePoint" />
            <mxPoint x="720" y="450" as="targetPoint" />
          </mxGeometry>
        </mxCell>
        <mxCell id="C4ocbQQ2MePA_ajjcNaI-25" value="" style="endArrow=none;html=1;rounded=0;fontSize=8;exitX=0;exitY=0;exitDx=0;exitDy=0;entryX=0.75;entryY=1;entryDx=0;entryDy=0;" edge="1" parent="1" source="C4ocbQQ2MePA_ajjcNaI-20" target="C4ocbQQ2MePA_ajjcNaI-3">
          <mxGeometry width="50" height="50" relative="1" as="geometry">
            <mxPoint x="740" y="450" as="sourcePoint" />
            <mxPoint x="790" y="400" as="targetPoint" />
          </mxGeometry>
        </mxCell>
        <mxCell id="C4ocbQQ2MePA_ajjcNaI-27" value="" style="rhombus;whiteSpace=wrap;html=1;fontSize=8;" vertex="1" parent="1">
          <mxGeometry x="390" y="170" width="80" height="60" as="geometry" />
        </mxCell>
        <mxCell id="C4ocbQQ2MePA_ajjcNaI-28" value="" style="endArrow=none;html=1;rounded=0;fontSize=8;entryX=0;entryY=0.5;entryDx=0;entryDy=0;" edge="1" parent="1" target="C4ocbQQ2MePA_ajjcNaI-27">
          <mxGeometry width="50" height="50" relative="1" as="geometry">
            <mxPoint x="260" y="200" as="sourcePoint" />
            <mxPoint x="310" y="150" as="targetPoint" />
          </mxGeometry>
        </mxCell>
        <mxCell id="C4ocbQQ2MePA_ajjcNaI-29" value="" style="endArrow=none;html=1;rounded=0;fontSize=8;exitX=1;exitY=0.5;exitDx=0;exitDy=0;entryX=0;entryY=0.5;entryDx=0;entryDy=0;" edge="1" parent="1" source="C4ocbQQ2MePA_ajjcNaI-27" target="C4ocbQQ2MePA_ajjcNaI-2">
          <mxGeometry width="50" height="50" relative="1" as="geometry">
            <mxPoint x="480" y="210" as="sourcePoint" />
            <mxPoint x="530" y="160" as="targetPoint" />
          </mxGeometry>
        </mxCell>
        <mxCell id="C4ocbQQ2MePA_ajjcNaI-30" value="&lt;font style=&quot;font-size: 9px;&quot;&gt;CURSAN&lt;/font&gt;" style="rhombus;whiteSpace=wrap;html=1;fontSize=8;" vertex="1" parent="1">
          <mxGeometry x="585" y="260" width="70" height="50" as="geometry" />
        </mxCell>
        <mxCell id="C4ocbQQ2MePA_ajjcNaI-31" value="" style="rhombus;whiteSpace=wrap;html=1;fontSize=8;" vertex="1" parent="1">
          <mxGeometry x="400" y="360" width="60" height="60" as="geometry" />
        </mxCell>
        <mxCell id="C4ocbQQ2MePA_ajjcNaI-32" value="" style="rhombus;whiteSpace=wrap;html=1;fontSize=8;" vertex="1" parent="1">
          <mxGeometry x="350" y="585" width="80" height="80" as="geometry" />
        </mxCell>
        <mxCell id="C4ocbQQ2MePA_ajjcNaI-33" value="" style="endArrow=none;html=1;rounded=0;fontSize=8;exitX=1;exitY=0.5;exitDx=0;exitDy=0;entryX=0;entryY=0.5;entryDx=0;entryDy=0;" edge="1" parent="1" source="C4ocbQQ2MePA_ajjcNaI-4" target="C4ocbQQ2MePA_ajjcNaI-31">
          <mxGeometry width="50" height="50" relative="1" as="geometry">
            <mxPoint x="390" y="410" as="sourcePoint" />
            <mxPoint x="440" y="360" as="targetPoint" />
          </mxGeometry>
        </mxCell>
        <mxCell id="C4ocbQQ2MePA_ajjcNaI-34" value="" style="endArrow=none;html=1;rounded=0;fontSize=8;entryX=0;entryY=0.5;entryDx=0;entryDy=0;exitX=1;exitY=0.5;exitDx=0;exitDy=0;" edge="1" parent="1" source="C4ocbQQ2MePA_ajjcNaI-31" target="C4ocbQQ2MePA_ajjcNaI-3">
          <mxGeometry width="50" height="50" relative="1" as="geometry">
            <mxPoint x="390" y="410" as="sourcePoint" />
            <mxPoint x="440" y="360" as="targetPoint" />
          </mxGeometry>
        </mxCell>
        <mxCell id="C4ocbQQ2MePA_ajjcNaI-35" value="" style="endArrow=none;html=1;rounded=0;fontSize=8;entryX=0.5;entryY=1;entryDx=0;entryDy=0;exitX=0.5;exitY=0;exitDx=0;exitDy=0;" edge="1" parent="1" source="C4ocbQQ2MePA_ajjcNaI-30" target="C4ocbQQ2MePA_ajjcNaI-2">
          <mxGeometry width="50" height="50" relative="1" as="geometry">
            <mxPoint x="390" y="410" as="sourcePoint" />
            <mxPoint x="440" y="360" as="targetPoint" />
          </mxGeometry>
        </mxCell>
        <mxCell id="C4ocbQQ2MePA_ajjcNaI-36" value="" style="endArrow=none;html=1;rounded=0;fontSize=8;entryX=0.5;entryY=1;entryDx=0;entryDy=0;exitX=0.5;exitY=0;exitDx=0;exitDy=0;" edge="1" parent="1" source="C4ocbQQ2MePA_ajjcNaI-3" target="C4ocbQQ2MePA_ajjcNaI-30">
          <mxGeometry width="50" height="50" relative="1" as="geometry">
            <mxPoint x="390" y="410" as="sourcePoint" />
            <mxPoint x="440" y="360" as="targetPoint" />
          </mxGeometry>
        </mxCell>
        <mxCell id="C4ocbQQ2MePA_ajjcNaI-37" value="&lt;font style=&quot;font-size: 9px;&quot;&gt;IMPARTEN&lt;/font&gt;" style="text;html=1;strokeColor=none;fillColor=none;align=center;verticalAlign=middle;whiteSpace=wrap;rounded=0;fontSize=8;" vertex="1" parent="1">
          <mxGeometry x="395" y="185" width="70" height="30" as="geometry" />
        </mxCell>
        <mxCell id="C4ocbQQ2MePA_ajjcNaI-38" value="&lt;font color=&quot;#ffffff&quot; style=&quot;font-size: 11px;&quot;&gt;COD_PROF&lt;/font&gt;" style="ellipse;whiteSpace=wrap;html=1;fontSize=9;fillColor=#000000;" vertex="1" parent="1">
          <mxGeometry x="20" y="110" width="70" height="30" as="geometry" />
        </mxCell>
        <mxCell id="C4ocbQQ2MePA_ajjcNaI-40" value="&lt;font style=&quot;font-size: 12px;&quot;&gt;1:N&lt;/font&gt;" style="text;html=1;align=center;verticalAlign=middle;resizable=0;points=[];autosize=1;strokeColor=none;fillColor=none;fontSize=11;fontColor=#000000;" vertex="1" parent="1">
          <mxGeometry x="280" y="165" width="30" height="20" as="geometry" />
        </mxCell>
        <mxCell id="C4ocbQQ2MePA_ajjcNaI-41" value="N:1" style="text;html=1;align=center;verticalAlign=middle;resizable=0;points=[];autosize=1;strokeColor=none;fillColor=none;fontSize=12;fontColor=#000000;" vertex="1" parent="1">
          <mxGeometry x="505" y="170" width="30" height="20" as="geometry" />
        </mxCell>
        <mxCell id="C4ocbQQ2MePA_ajjcNaI-42" value="&lt;font style=&quot;font-size: 13px;&quot;&gt;&lt;b&gt;N:M&lt;/b&gt;&lt;/font&gt;" style="text;html=1;align=center;verticalAlign=middle;resizable=0;points=[];autosize=1;strokeColor=none;fillColor=none;fontSize=12;fontColor=#000000;" vertex="1" parent="1">
          <mxGeometry x="410" y="145" width="40" height="20" as="geometry" />
        </mxCell>
        <mxCell id="C4ocbQQ2MePA_ajjcNaI-44" value="&lt;font style=&quot;font-size: 11px;&quot;&gt;1:N&lt;/font&gt;" style="text;html=1;align=center;verticalAlign=middle;resizable=0;points=[];autosize=1;strokeColor=none;fillColor=none;fontSize=9;fontColor=#000000;" vertex="1" parent="1">
          <mxGeometry x="645" y="240" width="30" height="20" as="geometry" />
        </mxCell>
        <mxCell id="C4ocbQQ2MePA_ajjcNaI-45" value="&lt;font style=&quot;font-size: 11px;&quot;&gt;N:1&lt;/font&gt;" style="text;html=1;align=center;verticalAlign=middle;resizable=0;points=[];autosize=1;strokeColor=none;fillColor=none;fontSize=9;fontColor=#000000;" vertex="1" parent="1">
          <mxGeometry x="645" y="330" width="30" height="20" as="geometry" />
        </mxCell>
        <mxCell id="C4ocbQQ2MePA_ajjcNaI-46" value="&lt;font size=&quot;1&quot; style=&quot;&quot;&gt;&lt;b style=&quot;font-size: 13px;&quot;&gt;N:M&lt;/b&gt;&lt;/font&gt;" style="text;html=1;align=center;verticalAlign=middle;resizable=0;points=[];autosize=1;strokeColor=none;fillColor=none;fontSize=9;fontColor=#000000;" vertex="1" parent="1">
          <mxGeometry x="680" y="285" width="40" height="20" as="geometry" />
        </mxCell>
        <mxCell id="C4ocbQQ2MePA_ajjcNaI-52" value="" style="shape=or;whiteSpace=wrap;html=1;fontSize=9;fontColor=#000000;fillColor=#FFFFFF;" vertex="1" parent="1">
          <mxGeometry x="720" y="340" width="20" height="40" as="geometry" />
        </mxCell>
        <mxCell id="C4ocbQQ2MePA_ajjcNaI-53" value="" style="shape=or;whiteSpace=wrap;html=1;fontSize=9;fontColor=#000000;fillColor=#000000;rotation=-180;" vertex="1" parent="1">
          <mxGeometry x="700" y="340" width="20" height="40" as="geometry" />
        </mxCell>
        <mxCell id="C4ocbQQ2MePA_ajjcNaI-57" value="" style="shape=or;whiteSpace=wrap;html=1;fontSize=9;fontColor=#000000;fillColor=#FFFFFF;" vertex="1" parent="1">
          <mxGeometry x="360" y="250" width="20" height="40" as="geometry" />
        </mxCell>
        <mxCell id="C4ocbQQ2MePA_ajjcNaI-58" value="" style="shape=or;whiteSpace=wrap;html=1;fontSize=9;fontColor=#000000;fillColor=#000000;rotation=-180;" vertex="1" parent="1">
          <mxGeometry x="340" y="250" width="20" height="40" as="geometry" />
        </mxCell>
        <mxCell id="C4ocbQQ2MePA_ajjcNaI-59" value="" style="shape=or;whiteSpace=wrap;html=1;fontSize=9;fontColor=#000000;fillColor=#FFFFFF;" vertex="1" parent="1">
          <mxGeometry x="500" y="255" width="20" height="40" as="geometry" />
        </mxCell>
        <mxCell id="C4ocbQQ2MePA_ajjcNaI-60" value="" style="shape=or;whiteSpace=wrap;html=1;fontSize=9;fontColor=#000000;fillColor=#000000;rotation=-180;" vertex="1" parent="1">
          <mxGeometry x="480" y="255" width="20" height="40" as="geometry" />
        </mxCell>
        <mxCell id="C4ocbQQ2MePA_ajjcNaI-61" value="" style="shape=or;whiteSpace=wrap;html=1;fontSize=9;fontColor=#000000;fillColor=#FFFFFF;" vertex="1" parent="1">
          <mxGeometry x="760" y="210" width="20" height="40" as="geometry" />
        </mxCell>
        <mxCell id="C4ocbQQ2MePA_ajjcNaI-62" value="" style="shape=or;whiteSpace=wrap;html=1;fontSize=9;fontColor=#000000;fillColor=#000000;rotation=-180;" vertex="1" parent="1">
          <mxGeometry x="740" y="210" width="20" height="40" as="geometry" />
        </mxCell>
        <mxCell id="C4ocbQQ2MePA_ajjcNaI-63" value="&lt;font style=&quot;font-size: 11px;&quot;&gt;COD_MAT1&lt;/font&gt;" style="text;html=1;strokeColor=none;fillColor=none;align=center;verticalAlign=middle;whiteSpace=wrap;rounded=0;fontSize=9;fontColor=#000000;" vertex="1" parent="1">
          <mxGeometry x="280" y="240" width="60" height="30" as="geometry" />
        </mxCell>
        <mxCell id="C4ocbQQ2MePA_ajjcNaI-64" value="&lt;font style=&quot;font-size: 11px;&quot;&gt;COD_PROF1&lt;/font&gt;" style="text;html=1;align=center;verticalAlign=middle;resizable=0;points=[];autosize=1;strokeColor=none;fillColor=none;fontSize=9;fontColor=#000000;" vertex="1" parent="1">
          <mxGeometry x="475" y="225" width="80" height="20" as="geometry" />
        </mxCell>
        <mxCell id="C4ocbQQ2MePA_ajjcNaI-65" value="&lt;font style=&quot;font-size: 11px;&quot;&gt;COD_MAT1&lt;/font&gt;" style="text;html=1;align=center;verticalAlign=middle;resizable=0;points=[];autosize=1;strokeColor=none;fillColor=none;fontSize=11;fontColor=#000000;" vertex="1" parent="1">
          <mxGeometry x="740" y="330" width="70" height="20" as="geometry" />
        </mxCell>
        <mxCell id="C4ocbQQ2MePA_ajjcNaI-66" value="EXP_ALU1" style="text;html=1;align=center;verticalAlign=middle;resizable=0;points=[];autosize=1;strokeColor=none;fillColor=none;fontSize=11;fontColor=#000000;" vertex="1" parent="1">
          <mxGeometry x="745" y="250" width="70" height="20" as="geometry" />
        </mxCell>
        <mxCell id="C4ocbQQ2MePA_ajjcNaI-70" value="" style="endArrow=none;html=1;rounded=0;fontSize=11;fontColor=#000000;entryX=0.25;entryY=1;entryDx=0;entryDy=0;" edge="1" parent="1" target="C4ocbQQ2MePA_ajjcNaI-37">
          <mxGeometry width="50" height="50" relative="1" as="geometry">
            <mxPoint x="360" y="250" as="sourcePoint" />
            <mxPoint x="410" y="200" as="targetPoint" />
          </mxGeometry>
        </mxCell>
        <mxCell id="C4ocbQQ2MePA_ajjcNaI-71" value="" style="endArrow=none;html=1;rounded=0;fontSize=11;fontColor=#000000;entryX=0.871;entryY=1.033;entryDx=0;entryDy=0;entryPerimeter=0;exitX=0.7;exitY=0.9;exitDx=0;exitDy=0;exitPerimeter=0;" edge="1" parent="1" source="C4ocbQQ2MePA_ajjcNaI-60" target="C4ocbQQ2MePA_ajjcNaI-37">
          <mxGeometry width="50" height="50" relative="1" as="geometry">
            <mxPoint x="410" y="285" as="sourcePoint" />
            <mxPoint x="460" y="235" as="targetPoint" />
          </mxGeometry>
        </mxCell>
      </root>
    </mxGraphModel>
  </diagram>
</mxfile>
